<?xml version="1.0" encoding="UTF-8" standalone="no"?>
<!-- Created with Inkscape (http://www.inkscape.org/) -->

<svg
   width="120.43893mm"
   height="54.720589mm"
   viewBox="0 0 120.43893 54.720589"
   preserveAspectRatio="none"
   version="1.1"
   id="svg570"
   xml:space="preserve"
   inkscape:version="1.2.1 (9c6d41e410, 2022-07-14, custom)"
   sodipodi:docname="bookMask.svg"
   xmlns:inkscape="http://www.inkscape.org/namespaces/inkscape"
   xmlns:sodipodi="http://sodipodi.sourceforge.net/DTD/sodipodi-0.dtd"
   xmlns="http://www.w3.org/2000/svg"
   xmlns:svg="http://www.w3.org/2000/svg"><sodipodi:namedview
     id="namedview572"
     pagecolor="#ffffff"
     bordercolor="#666666"
     borderopacity="1.0"
     inkscape:showpageshadow="2"
     inkscape:pageopacity="0.0"
     inkscape:pagecheckerboard="0"
     inkscape:deskcolor="#d1d1d1"
     inkscape:document-units="mm"
     showgrid="false"
     inkscape:zoom="0.89133639"
     inkscape:cx="420.71658"
     inkscape:cy="257.47855"
     inkscape:window-width="1910"
     inkscape:window-height="1043"
     inkscape:window-x="4"
     inkscape:window-y="4"
     inkscape:window-maximized="1"
     inkscape:current-layer="layer1" /><defs
     id="defs567" /><g
     inkscape:label="Layer 1"
     inkscape:groupmode="layer"
     id="layer1"
     transform="translate(-11.236349,-11.606894)"><path
       style="fill:#000000;stroke:#000000;stroke-width:0.15633"
       d="m 15.403053,66.234503 c -0.327742,-0.02138 -0.595895,-0.09297 -0.595895,-0.159122 0,-0.289902 -1.102123,-0.974233 -1.569015,-0.974233 -0.710225,0 -1.023761,-0.178601 -1.220448,-0.695217 -0.173008,-0.454416 -0.428287,-3.907559 -0.368146,-4.979887 0.01708,-0.30452 0.06639,-2.546877 0.109585,-4.983019 0.04319,-2.436143 0.09848,-5.466286 0.12286,-6.733656 0.02901,-1.50826 0.144259,-2.346258 0.333602,-2.425749 0.209476,-0.08795 0.203991,-0.292327 -0.01988,-0.740877 -1.445234,-4.008887 -0.297692,-7.410199 -0.464609,-11.139132 -0.01785,-0.365285 0.07397,-2.844808 0.140103,-3.783405 0.0071,-0.101505 -0.01769,-1.792652 -0.05519,-3.758105 -1.018161,-3.392186 -0.1685,-7.360534 -0.157128,-9.864868 0.0052,-1.870103 0.292362,-2.97765 0.800458,-3.087061 0.126014,-0.02713 0.229116,-0.148746 0.229116,-0.270246 0,-0.121499 0.13321,-0.322775 0.296022,-0.44728 0.284378,-0.217467 0.422416,-0.228459 3.509155,-0.279423 1.767224,-0.02918 17.752954,-0.08252 35.523849,-0.118533 17.77089,-0.03601 34.515518,-0.07124 37.210278,-0.07827 16.84386,-0.04396 35.55111,-0.04126 36.6806,0.0053 0.72831,0.03002 1.57074,0.07156 1.87204,0.09232 0.31409,0.02163 3.0144,-0.14624 3.05887,0.31292 l 0.10108,1.043998 0.0875,1.193012 c 0.052,0.707981 -0.0301,1.310586 -0.20181,1.482193 -0.18131,0.181227 -0.19478,0.309539 -0.036,0.343718 0.14845,0.03198 0.17717,0.263637 0.0694,0.559796 -0.10114,0.277895 -0.12077,0.775175 -0.0436,1.105068 0.0772,0.329896 0.0977,1.637939 0.0456,2.906763 -0.0521,1.268824 -0.0829,2.369242 -0.0687,2.445371 0.0143,0.07613 0.13254,0.678241 0.26277,1.33803 -0.51602,6.019959 -0.14294,8.223926 -0.37787,13.075857 -0.2198,0.158379 -0.24789,0.260565 -0.0771,0.280399 0.56475,0.06559 0.74502,1.149186 0.71786,4.315011 -0.0155,1.801729 0.0612,7.698335 0.17025,13.103569 0.21505,10.655057 0.23562,10.468341 -1.16487,10.572197 -0.38926,0.02888 -0.96528,0.08856 -1.28006,0.132657 -0.31477,0.04409 -8.0614,0.105792 -17.21472,0.137104 -19.335011,0.06615 -92.802976,0.110281 -93.9775,0.05645 -0.43769,-0.02005 -1.033584,-0.01583 -1.324209,0.0093 -0.290626,0.02522 -0.796563,0.02836 -1.124305,0.007 z"
       id="path703"
       sodipodi:nodetypes="cssssssscccccsssssssssccscscscccccsssssccc" /></g></svg>
