<?xml version="1.0" encoding="UTF-8" standalone="no"?>
<!-- Created with Inkscape (http://www.inkscape.org/) -->

<svg
   width="83.043892mm"
   height="42.115227mm"
   viewBox="0 0 83.043891 42.115228"
   preserveAspectRatio="none"
   version="1.1"
   id="svg5"
   xml:space="preserve"
   sodipodi:docname="letterMask.svg"
   inkscape:version="1.2.1 (9c6d41e410, 2022-07-14, custom)"
   xmlns:inkscape="http://www.inkscape.org/namespaces/inkscape"
   xmlns:sodipodi="http://sodipodi.sourceforge.net/DTD/sodipodi-0.dtd"
   xmlns="http://www.w3.org/2000/svg"
   xmlns:svg="http://www.w3.org/2000/svg"><sodipodi:namedview
     id="namedview7"
     pagecolor="#ffffff"
     bordercolor="#666666"
     borderopacity="1.0"
     inkscape:showpageshadow="2"
     inkscape:pageopacity="0.0"
     inkscape:pagecheckerboard="0"
     inkscape:deskcolor="#d1d1d1"
     inkscape:document-units="mm"
     showgrid="false"
     inkscape:zoom="3.1691278"
     inkscape:cx="163.13637"
     inkscape:cy="85.985805"
     inkscape:window-width="1910"
     inkscape:window-height="1043"
     inkscape:window-x="4"
     inkscape:window-y="4"
     inkscape:window-maximized="1"
     inkscape:current-layer="layer1" /><defs
     id="defs2" /><g
     inkscape:label="Layer 1"
     inkscape:groupmode="layer"
     id="layer1"
     transform="translate(-10.482294,-5.8978462)"><path
       style="fill:#000000;stroke:#000000;stroke-width:0.167729"
       d="M 30.835298,47.929055 C 24.624131,47.365653 18.128629,48.339457 11.999142,47.540703 8.7706552,45.584458 12.155415,43.210265 11.12945,41.060807 10.827451,37.925932 10.585758,34.781922 11.061975,31.652182 10.78054,26.987463 10.681231,22.32029 11.040495,17.655828 c -0.08024,-2.32016 -0.755059,-4.631636 -0.07756,-6.950559 -0.19102,-1.8801376 -1.9888919,-5.2923407 5.754201,-4.642236 8.495537,0.3597008 17.074289,-0.00644 25.60039,0.2334511 11.391043,-0.4150825 22.820847,0.2740875 34.218087,-0.1334626 5.148299,0.6260933 13.207185,-1.1133377 16.165934,1.0457321 1.288114,1.8568417 -0.282079,3.8072604 0.503297,5.6810304 -0.933999,3.403702 0.597543,6.825476 -0.265497,10.233582 0.0078,3.411684 0.715843,6.833799 -0.04737,10.235915 0.448658,4.237131 -0.07756,8.482388 0.548493,12.717726 0.14862,2.813853 -8.412519,1.253668 -12.625734,1.700377 -8.313786,0.154473 -16.642398,0.05128 -24.934326,-0.123376 -6.235126,0.148821 -12.513753,0.419638 -18.729833,0.06961 -2.113183,0.02067 -4.214096,0.120571 -6.315284,0.205436 z"
       id="path302"
       sodipodi:nodetypes="cscccsssssssssscsscssscccccssccscssssssccssssscccscssssccccscccsssssccccsscscc" /></g></svg>
