<?xml version="1.0" encoding="UTF-8" standalone="no"?>
<!-- Created with Inkscape (http://www.inkscape.org/) -->

<svg
   width="88.781975mm"
   height="190.02641mm"
   viewBox="0 0 88.781974 190.02641"
   version="1.1"
   id="svg5"
   xml:space="preserve"
   inkscape:version="1.2.1 (9c6d41e410, 2022-07-14, custom)"
   sodipodi:docname="noteFrameMask.svg"
   xmlns:inkscape="http://www.inkscape.org/namespaces/inkscape"
   xmlns:sodipodi="http://sodipodi.sourceforge.net/DTD/sodipodi-0.dtd"
   xmlns="http://www.w3.org/2000/svg"
   xmlns:svg="http://www.w3.org/2000/svg"><sodipodi:namedview
     id="namedview7"
     pagecolor="#ffffff"
     bordercolor="#666666"
     borderopacity="1.0"
     inkscape:showpageshadow="2"
     inkscape:pageopacity="0.0"
     inkscape:pagecheckerboard="0"
     inkscape:deskcolor="#d1d1d1"
     inkscape:document-units="mm"
     showgrid="false"
     showguides="true"
     inkscape:zoom="1.2413165"
     inkscape:cx="288.40349"
     inkscape:cy="292.83427"
     inkscape:window-width="1910"
     inkscape:window-height="1043"
     inkscape:window-x="4"
     inkscape:window-y="4"
     inkscape:window-maximized="1"
     inkscape:current-layer="layer1" /><defs
     id="defs2" /><g
     inkscape:label="Layer 1"
     inkscape:groupmode="layer"
     id="layer1"
     transform="translate(-61.457552,-28.51011)"><path
       style="fill:#000000;stroke:#000000;stroke-width:0.264583px;stroke-linecap:butt;stroke-linejoin:miter;stroke-opacity:1"
       d="m 61.867797,34.438974 c 0,0 -0.568287,-5.66006 5.770479,-5.767587 6.338766,-0.107527 78.191754,0.119889 78.191754,0.119889 0,0 2.09992,-0.166059 2.94491,2.021927 0.84499,2.187985 1.00832,4.491722 1.06547,6.075261 0.0571,1.583538 0.26027,174.572766 0.26027,174.572766 0,0 0.34467,6.92125 -4.01822,6.94227 -4.3629,0.021 -80.560354,-0.4157 -80.560354,-0.4157 0,0 -4.236066,1.16355 -3.914773,-11.84081 0.321292,-13.00435 0.260464,-171.708016 0.260464,-171.708016 z"
       id="path365" /></g></svg>
