<?xml version="1.0" encoding="UTF-8" standalone="no"?>
<!-- Created with Inkscape (http://www.inkscape.org/) -->

<svg
   width="200.21544mm"
   height="163.44249mm"
   viewBox="0 0 200.21544 163.4425"
   version="1.1"
   id="svg5"
   xml:space="preserve"
   sodipodi:docname="simpleFrame.svg"
   inkscape:export-filename="simpleFrame.png"
   inkscape:export-xdpi="1268.6334"
   inkscape:export-ydpi="1268.6334"
   inkscape:version="1.2.1 (9c6d41e410, 2022-07-14, custom)"
   xmlns:inkscape="http://www.inkscape.org/namespaces/inkscape"
   xmlns:sodipodi="http://sodipodi.sourceforge.net/DTD/sodipodi-0.dtd"
   xmlns="http://www.w3.org/2000/svg"
   xmlns:svg="http://www.w3.org/2000/svg"><sodipodi:namedview
     id="namedview7"
     pagecolor="#ffffff"
     bordercolor="#666666"
     borderopacity="1.0"
     inkscape:showpageshadow="2"
     inkscape:pageopacity="0.0"
     inkscape:pagecheckerboard="0"
     inkscape:deskcolor="#d1d1d1"
     inkscape:document-units="mm"
     showgrid="false"
     inkscape:zoom="1"
     inkscape:cx="279.5"
     inkscape:cy="336.5"
     inkscape:window-width="1910"
     inkscape:window-height="1043"
     inkscape:window-x="1084"
     inkscape:window-y="71"
     inkscape:window-maximized="1"
     inkscape:current-layer="layer1" /><defs
     id="defs2" /><g
     inkscape:label="Layer 1"
     inkscape:groupmode="layer"
     id="layer1"
     transform="translate(-8.6617407,-82.139297)"><path
       id="rect11331"
       style="fill:none;stroke:#000000;stroke-width:1.19658;stroke-linejoin:round;stroke-dasharray:none"
       d="m 19.129196,82.737587 a 8.6592474,8.6592474 0 0 1 0.128157,1.474846 8.6592474,8.6592474 0 0 1 -8.659419,8.659419 8.6592474,8.6592474 0 0 1 -1.3379033,-0.150895 V 235.06317 a 8.6592474,8.6592474 0 0 1 1.4707113,-0.13074 8.6592474,8.6592474 0 0 1 8.65942,8.65942 8.6592474,8.6592474 0 0 1 -0.115755,1.39165 H 198.4645 a 8.6592474,8.6592474 0 0 1 -0.15761,-1.61024 8.6592474,8.6592474 0 0 1 8.65942,-8.65942 8.6592474,8.6592474 0 0 1 1.31258,0.10025 V 92.740078 a 8.6592474,8.6592474 0 0 1 -1.33997,0.106453 8.6592474,8.6592474 0 0 1 -8.65942,-8.65942 8.6592474,8.6592474 0 0 1 0.12661,-1.449524 z" /><path
       id="rect11470"
       style="fill:none;stroke:#000000;stroke-width:0.396999;stroke-linejoin:round;stroke-dasharray:none"
       d="m 21.423629,85.100751 a 9.8965206,9.8965206 0 0 1 5.17e-4,0.06046 9.8965206,9.8965206 0 0 1 -9.896553,9.896037 9.8965206,9.8965206 0 0 1 -0.03307,-0.001 V 232.77391 a 9.8965206,9.8965206 0 0 1 0.138492,-0.005 9.8965206,9.8965206 0 0 1 9.896037,9.864 H 196.2698 a 9.8965206,9.8965206 0 0 1 9.83868,-9.86142 V 94.878965 a 9.8965206,9.8965206 0 0 1 -0.0987,0.0036 9.8965206,9.8965206 0 0 1 -9.89242,-9.781831 z" /></g></svg>
